<?xml version="1.0" encoding="UTF-8"?>
<svg id="uuid-61418da7-4113-4826-9ffc-07fbbc28661a" xmlns="http://www.w3.org/2000/svg" viewBox="0 0 61.69 61.69">
    <defs>
        <style>.uuid-c53c5dfe-f07d-4bd4-9546-5c8a8eaf55f1{fill:#fff;}</style>
    </defs>
    <path d="M28.76.05c15.44-.82,28.75,8.76,32.16,23.9,4.78,21.22-13.32,40.73-34.83,37.35C6.96,58.3-4.77,38.47,1.87,20.16,5.97,8.85,16.65.69,28.76.05ZM10.85,52.58c17.45,16.02,45.57,6,49.18-17.22C63.3,14.28,44.42-2.78,23.72,2.11.81,7.52-6.45,36.7,10.85,52.58Z"/>
    <path d="M32.8,16.82c.12-.12.19-.33.23-.49.47-1.6.69-3.62,1.04-5.3.38-1.83.77-3.66,1.16-5.49.09-.41.42-1.28.33-1.62-.05-.18-.28-.36-.28-.63,0-.96,1.66-1.01,1.6.07-.02.42-.29.52-.44.86-.41.89-.76,3.14-.99,4.21-.48,2.26-1.28,5.41-1.46,7.63-.05.56-.08.97.41,1.33.71.51,1.36-.13,1.7-.75,1.13-2.09,2.05-5.07,2.99-7.33.22-.53,1.56-3.38,1.54-3.65-.01-.16-.16-.29-.16-.54-.02-1.46,2.43-.71,1.31.61-.52.61-.6.85-.93,1.59-1.25,2.8-2.79,6.29-3.73,9.18-.21.63-.72,1.97.23,2.22.77.2,1.17-.33,1.61-.84,2.37-2.82,4.35-6.39,6.71-9.26.48-.45.37-1.56,1.2-1.55,1.23,0,.97,1.67-.19,1.65-2.09,2.99-4.66,5.91-6.61,8.98-.31.48-.9,1.38-.89,1.94.02.81.79,1.02,1.43.74,3.28-2.64,6.33-5.6,9.43-8.46.15-.2.12-.47.24-.68.47-.86,1.8-.42,1.45.6-.22.64-.65.42-1.04.64-.32.18-1.2,1.18-1.56,1.5-1.88,1.68-3.88,3.34-5.7,5.08-.52.5-2.03,1.85-2.09,2.49-.09.83.54,1.34,1.33,1.25s4.64-2.64,5.64-3.22c1.88-1.09,3.85-2.1,5.66-3.28.27-1.05,1.61-1.01,1.61.12,0,.77-.67.58-1.13.67-.15.03-.41.2-.57.28-1.44.72-3.02,1.7-4.43,2.52-1.32.77-5.3,2.91-6.06,3.95-.56.76-.1,1.59.81,1.61,3.2-.85,6.31-2.07,9.46-3.11.79-.26,1.84-.46,2.58-.79.5-.22.59-.84,1.34-.53.51.21.56,1.12.08,1.34-.38.18-.79-.05-1.15,0-1.26.15-4.22,1.31-5.58,1.77-1.58.53-4.84,1.46-6.12,2.28-.57.36-.73.97-.34,1.54.33.5.95.46,1.48.44,2.27-.08,4.95-.65,7.26-.92,1.19-.14,2.4-.26,3.59-.38.27-.03.59.04.84,0,.21-.04.39-.29.65-.35,1.23-.28,1.45,1.64.05,1.41-.45-.07-.5-.24-1.15-.22-.99.03-2.2.2-3.21.31-2.24.24-4.82.47-7.01.86-.61.11-1.6.24-1.91.84-.19.37-.19.65.03,1,.64,1.03,3.55.93,4.69,1.05,2.65.27,5.3.61,7.95.83.2,0,.42-.24.62-.28,1.3-.27,1.32,1.56.22,1.51-.3-.02-.54-.31-.85-.37-1.44-.28-3.37-.3-4.89-.46-2.15-.24-4.49-.65-6.65-.69-.88-.02-1.87.02-1.83,1.16.03.73.36.79.93,1.04,3.61,1.57,7.71,2.49,11.41,3.89.25.1.41-.11.65-.13.94-.07,1.17,1.08.45,1.45-.57.29-.88-.14-1.27-.46-3.75-1.11-7.58-2.84-11.35-3.78-.68-.17-1.56-.34-1.89.51-.36.93.52,1.4,1.15,1.84,3.16,2.18,6.69,3.82,9.92,5.9.19.1.41.03.61.08,1.54.35.56,2.2-.44,1.36-.31-.27-.23-.51-.7-.83-3.19-2.14-6.95-3.82-10.18-5.94-.75-.43-1.95-.59-2.07.54-.1.91.29,1.15.88,1.72,2.75,2.66,5.95,5.03,8.63,7.8.34.19.69-.08,1.04.42.67.95-.79,1.81-1.31.86-.26-.48-.17-.53-.63-.97-.91-.89-1.86-1.77-2.79-2.64-1.73-1.6-3.9-3.73-5.74-5.11-.6-.45-1.6-.86-2.07-.02s.51,2.07.99,2.78c1.97,2.9,4.33,5.62,6.25,8.58.23.23.64.22.86.51.5.67-.28,1.61-1.01,1.16-.49-.3-.25-.63-.43-1.03l-7.19-9.93c-.59-.91-1.96-.94-2.06.3-.08.92,1.22,3.44,1.62,4.42,1.05,2.6,2.03,5.26,3.23,7.77,1.31.44.46,2.08-.6,1.44-.47-.28-.31-.85-.31-1.29l-4.56-11.11c-.41-1.06-2.05-1.28-2.21.07-.14,1.2.48,3.65.72,4.93.46,2.44,1.02,4.86,1.5,7.29.16.47.82.54.65,1.27-.21.91-1.67.76-1.58-.35.02-.24.18-.43.15-.68-1.08-3.76-1.33-8.01-2.34-11.73-.14-.51-.37-1.23-1.05-1.16-1.14.11-.93,2.25-.96,3.02-.15,3.33-.05,6.68-.08,10.01,0,.26.26.34.37.55.38.76-.63,1.57-1.27.97s.08-1.06.15-1.6c.05-.45-.08-.91-.08-1.3.04-3.1.4-7.31,0-10.31-.1-.76-.29-1.5-1.25-1.34-.73.12-.96,2-1.09,2.65-.68,3.37-1.18,6.79-1.93,10.15-.09.29.19.51.22.76.14,1.12-1.76,1.3-1.52-.16.06-.36.43-.45.5-.8.55-3.35,1.37-6.66,1.92-10,.12-.73.49-2.14.01-2.72-.4-.48-1.01-.56-1.48-.13-.54.5-1.55,3.28-1.9,4.13-.71,1.72-1.36,3.47-2.07,5.19-.25.61-.85,1.67-.99,2.22s.17,1.04-.42,1.41c-.75.47-1.74-.49-1.11-1.18.18-.19.55-.25.69-.38.08-.08.29-.56.36-.71,1.61-3.34,2.75-7.15,4.27-10.56.49-1.06-.46-2.39-1.57-1.57-2.64,3.17-4.86,6.72-7.29,10.06-.12.59-.06,1.41-.9,1.48-1.1.09-1.1-1.6,0-1.68,2.09-3.11,4.7-6.15,6.63-9.36.33-.56.77-1.14.68-1.83-.14-1.1-1.46-.95-2.13-.38-2.48,2.36-5.09,4.6-7.54,6.98-.29.29-1.08.98-1.26,1.26s-.08.51-.38.77c-.79.68-1.74-.35-1.11-1.11.38-.46.66-.18,1-.38,1.47-1.38,2.91-2.8,4.39-4.17s3.45-2.84,4.62-4.4c.33-.44.53-.94.12-1.41-.48-.54-1.21-.36-1.79-.1-1.74.77-4.17,2.41-5.88,3.45-.94.57-3.86,2.16-4.45,2.81-.17.18-.19.45-.39.6-.41.33-1.18.11-1.25-.41-.12-.89.49-1.04,1.25-1.05,3.08-2,6.46-3.7,9.53-5.68.44-.28,1.46-.89,1.58-1.4.15-.64-.34-1.3-1-1.31-4.05,1.1-7.99,2.64-12,3.9-.41.2-.64.79-1.2.68-1.29-.26-.51-2.11.68-1.44,3.63-1.26,7.59-2.27,11.13-3.76.67-.28,1.46-.54,1.35-1.46-.12-1-1.38-.92-2.1-.89-2.96.12-6.2.67-9.17,1-.68.07-1.49.04-2.14.16-.28.05-.44.31-.8.34-1.19.08-1.07-1.7.1-1.48.4.08.88.4,1.45.23,3.35-.46,6.91-.52,10.23-1.08.67-.11,1.91-.33,1.89-1.25-.03-1-1.21-1.23-1.99-1.38-2.35-.46-5.35-.72-7.76-.95-.85-.08-1.83-.19-2.68-.23-.59-.03-.57.16-.92.22-1.19.23-1.4-1.17-.5-1.41.57-.15.68.24,1.12.34,2.17.19,4.33.38,6.49.62,1.65.19,3.58.63,5.2.69.64.02,1.42-.06,1.55-.82.09-.54-.22-.94-.67-1.21-.91-.54-2.52-1.03-3.56-1.41-2.15-.79-4.46-1.63-6.65-2.29-.34-.1-.93-.34-1.23-.37-.36-.04-.74.11-1.04-.03-.8-.36-.47-1.64.5-1.42.35.08.44.48.74.64.82.43,2.65.84,3.63,1.18,2.36.81,5.18,2.05,7.54,2.62.46.11.88.22,1.34,0,.56-.27.62-1.06.28-1.54-.27-.38-1.85-1.33-2.33-1.64-2.42-1.53-5.15-3.13-7.66-4.49-.68-.37-.64-.33-1.38-.45-.62-.1-.87-.95-.39-1.37.7-.62,1.16.18,1.49.72,1.73,1.07,3.54,2,5.29,3.04,1.55.92,3.18,2.08,4.74,2.9.53.28,1.12.69,1.69.29.62-.43.62-1.15.19-1.72-1.02-1.37-2.72-2.64-3.98-3.82-1.6-1.51-3.2-3.02-4.78-4.55-.39-.27-.86-.14-1.12-.63-.42-.78.4-1.49,1.16-1.01.35.22.29.58.42.88s1,1.09,1.3,1.37c2.26,2.18,4.82,4.66,7.17,6.7.53.46,1.08,1.02,1.8.52.86-.61.33-1.65-.08-2.35-1.87-3.15-4.64-6.03-6.56-9.19-.34-.35-1.02-.32-1.07-1-.07-.96,1.39-1.08,1.59-.2.11.5,0,.49.3,1,2.02,3.29,4.9,6.38,6.98,9.69.46.78,1.66.36,1.69-.46.01-.44-.25-1.17-.39-1.61-1.1-3.43-2.75-6.9-4.02-10.28-.48-.28-.97-.69-.6-1.29.56-.92,1.83-.05,1.41.88,1.58,3.49,2.57,7.67,4.28,11.06.51,1,1.63,1.34,1.98.09-.43-4.2-1.4-8.36-2.16-12.51-.07-.19-.3-.28-.39-.45-.44-.82.79-1.62,1.29-.83.31.48-.06,1.1.05,1.63.79,3.45,1.16,7,1.94,10.44.11.5.42,1.88.9,2.08.96.39,1.31-1.06,1.36-1.73.27-3.56-.14-7.49.08-11.09.06-.29-.24-.47-.29-.7-.22-.98,1.03-1.57,1.43-.59.29.71-.24.79-.3,1.29.19,3.5-.24,7.24,0,10.7.03.48.24,1.83.76,1.99.27.09.61.06.82-.14ZM30.51,17.62c-1.05.27-.4,2.33.75,1.59.87-.57.29-1.85-.75-1.59ZM33.42,17.77c-.53.09-.44.93-.08,1.04.91.28.88-1.19.08-1.04ZM28.07,17.85c-.48.11-.46.69-.05.93.73.43,1.09-1.17.05-.93ZM25.54,19.07c-.67.16-.53,1.08.12,1.23,1.04.25,1.04-1.5-.12-1.23ZM35.71,19.07c-.53.12-.48,1.07.11,1.23.96.27,1.06-1.5-.11-1.23ZM27.96,19.99c-.48.51.5,1.23.89.62.34-.53-.48-1.06-.89-.62ZM33.42,19.84c-.79.07-.68,1.01-.09,1.05.82.05.71-1.11.09-1.05ZM23.64,20.22c-.84.15-.27,1.54.44.91.39-.34.03-.99-.44-.91ZM38.39,20.3c-.24-.24-.87-.12-.91.32-.08.89,1.06.73,1.07.16,0-.08-.12-.43-.16-.48ZM30.1,22.47c.54.49,1.54.28,1.76-.44.3-1.02-.78-1.73-1.66-1.2-.59.36-.59,1.2-.1,1.64ZM27.53,21.68c-.62-.7-1.77.22-1.08.97.65.7,1.71-.25,1.08-.97ZM34.72,21.44c-1.1.16-.57,1.86.43,1.35.78-.4.34-1.46-.43-1.35ZM21.73,21.82c-.95.14-.93,1.74.2,1.66,1.08-.07.93-1.83-.2-1.66ZM39.74,21.85c-1.1,0-.93,1.65.06,1.62,1.14-.03.97-1.62-.06-1.62ZM24.39,22.05c-.25.09-.39.83.15.9.81.1.71-1.19-.15-.9ZM36.75,22.86c.51.51,1.18-.42.63-.75-.59-.36-1.03.35-.63.75ZM28.99,22.82c-.65.12-.38,1.09.27.89.55-.16.32-1-.27-.89ZM32.42,22.82c-.57.16-.22,1.12.33.95s.32-1.14-.33-.95ZM23.79,23.89c-1.38.22-1.11,2.25.28,2.04s1.14-2.27-.28-2.04ZM37.47,23.97c-1.31.21-.99,2.16.28,2.04,1.5-.15,1.2-2.27-.28-2.04ZM35.83,34.98c.21-.23.5-.14.75-.21.37-.1.98-.64,1.05-1.02.18-.92-.99-1.12-.43-2.26.22-.44.55-.43.33-1.04-.12-.33-.41-.56-.42-.96-.03-.78.7-1,.43-1.95-.25-.89-1.54-.77-1.79-1.27-.15-.28-.06-.56-.12-.87-.09-.42-.36-.83-.77-.99-1.15-.47-1.53.49-2.52.38-.48-.05-.68-.47-1.05-.64-.9-.41-1.14.48-1.86.57-1.03.12-1.9-1.01-2.83-.31-.73.54-.47,1.02-.58,1.72-.13.82-1.74.37-1.96,1.47-.2.96.84,1.18.56,2.24-.07.27-.41.52-.43.8-.02.41.28.55.41.82.45.96-.48,1.25-.54,2.09-.13,1.57,1.77.89,1.96,1.76.06.26-.02.54.03.81.07.37.5.83.83,1,1.05.54,1.51-.47,2.63-.34.48.06.52.43.86.6.8.39,1.36-.67,2.05-.67.45,0,.79.44,1.16.52.53.11,1.2.03,1.62-.33.71-.6.26-1.5.64-1.92ZM19.81,24.27c-.44.09-.64.75-.2,1.01.93.57,1.16-1.21.2-1.01ZM41.6,24.27c-.85.12-.54,1.29.27,1.04.49-.15.29-1.12-.27-1.04ZM21.31,25.5c-.59.48.43,1.38.75.55.17-.45-.37-.86-.75-.55ZM39.92,25.42c-.88.07-.17,1.51.44.75.27-.33-.07-.78-.44-.75ZM19.51,26.49c-.62-.62-1.71.4-.98,1.02s1.54-.45.98-1.02ZM42.44,26.41c-.74.17-.57,1.58.48,1.25.77-.24.45-1.46-.48-1.25ZM21.57,27.48c-.6.1-.84,1.05-.11,1.3,1.29.45,1.4-1.51.11-1.3ZM40.53,28.67c.34-.36.02-1.2-.62-1.18-1.12.03-.74,1.4-.01,1.42.09,0,.57-.18.63-.24ZM19.96,29.01c-.7.18.11,1.24.42.58.16-.32-.14-.65-.42-.58ZM22.99,29.74c.29.33,1.03.04.78-.51-.27-.61-1.22.02-.78.51ZM37.97,29.09c-.29.29-.02.8.47.74.85-.11.06-1.27-.47-.74ZM41.52,29.01c-.65.17-.04,1.33.41.57.19-.32-.14-.63-.41-.57ZM42.97,29.7c-.85.2-.82,1.67.37,1.67,1.35,0,.96-1.98-.37-1.67ZM18.05,29.78c-.69.16-.76,1.62.21,1.67,1.51.08,1.31-2.02-.21-1.67ZM21.42,30.15c-.63.13-.45,1.13.12,1.11.88-.02.7-1.28-.12-1.11ZM39.99,30.15c-.71.13-.51,1.22.27,1.04.67-.15.33-1.15-.27-1.04ZM38.23,31.53c-.55.16-.4,1.11.27.97.73-.15.38-1.16-.27-.97ZM23.18,31.61c-.48.14-.36.93.13.9.67-.04.5-1.09-.13-.9ZM19.96,31.68c-.71.21.04,1.34.51.59.24-.38-.1-.71-.51-.59ZM41.25,31.76c-.27.27.06.98.56.67.6-.36-.18-1.05-.56-.67ZM22.26,32.76c-.64-.64-1.85.29-1.16,1.04.65.7,1.79-.41,1.16-1.04ZM39.76,32.6c-.86.16-.61,1.54.28,1.44,1.03-.12.64-1.61-.28-1.44ZM18.82,33.59c-.89.12-.59,1.79.5,1.27.64-.31.21-1.36-.5-1.27ZM43.2,33.83c-.61-.67-1.62.43-1.05,1.01.61.63,1.59-.43,1.05-1.01ZM22.03,35.36c-.41-.56-1.34.34-.57.68.5.22.82-.35.57-.68ZM39.76,35.28c-.42.13-.2,1.02.33.87.64-.18.42-1.1-.33-.87ZM37.55,35.51c-1.73.24-.7,2.81.73,1.88.98-.63.38-2.04-.73-1.88ZM23.63,35.59c-1.29.27-.88,2.25.58,1.95,1.25-.26.93-2.26-.58-1.95ZM20.42,37.08c.22-.23.17-.75-.25-.82-.85-.13-.74.99-.15.98.07,0,.36-.12.4-.17ZM41.36,36.27c-.39.12-.4.94.14.98.81.05.81-1.27-.14-.98ZM32.88,37.88c-.43-.45-1.23.17-.72.65.43.4,1.1-.25.72-.65ZM28.99,37.8c-.58.1-.44,1.02.13.98.61-.04.58-1.11-.13-.98ZM39.53,37.95c-.77.17-.73,1.63.29,1.63,1.1,0,.97-1.91-.29-1.63ZM21.65,38.03c-.9.18-.78,1.56.21,1.59,1.22.04,1.03-1.85-.21-1.59ZM24.29,39.45c.28.27.9.03.82-.47-.16-.94-1.45-.12-.82.47ZM26.77,38.64c-.76.17-.72,1.27.08,1.42,1.16.23,1.15-1.7-.08-1.42ZM34.57,38.64c-.91.16-.57,1.73.48,1.4.8-.25.44-1.56-.48-1.4ZM36.93,38.64c-.34.1-.3.81.16.89.71.13.86-1.19-.16-.89ZM30.02,40.66c.49.48,1.42.31,1.72-.33.6-1.26-1.17-2.2-1.89-.97-.23.4-.16.98.17,1.3ZM23.4,40.24c-.41.13-.39.93.16,1.04.88.18.85-1.35-.16-1.04ZM37.93,40.24c-.71.13-.49,1.21.27,1.04.63-.14.36-1.16-.27-1.04ZM28.14,40.63c-.43.13-.39.81.02.94.94.32.95-1.23-.02-.94ZM33.65,40.71c-.35-.36-1.21.13-.83.71.44.67,1.37-.17.83-.71ZM25.62,41.24c-.59.08-.7.92-.16,1.2.99.51,1.4-1.37.16-1.2ZM35.64,41.24c-.75.19-.45,1.36.27,1.27.92-.12.69-1.51-.27-1.27ZM30.51,42.16c-.75.19-.82,1.46.08,1.64,1.61.33,1.37-2.02-.08-1.64ZM28.61,42.69c-1.4-.57-1.01,1.62.06.75l-.06-.75ZM33.08,43.5c.39.41,1.16-.08.83-.64-.42-.7-1.29.14-.83.64Z"/>
    <path d="M14.92,47.66c.33-.1.81-.05.96.31.35.87-.89,1.41-1.26.57-.12-.27.03-.8.3-.88Z"/>
    <path d="M46.25,47.67c.86-.06,1.1,1.22.21,1.35-1.01.15-1.03-1.29-.21-1.35Z"/>
    <path d="M11.56,43.92c1.15-.27,1.24,1.22.36,1.29s-1-1.14-.36-1.29Z"/>
    <path d="M51.23,25.18c.82-.15,1.21,1.03.48,1.25-1.15.36-1.31-1.1-.48-1.25Z"/>
    <path d="M20.35,48.42c1.1-.25,1.21,1.39.22,1.34-.78-.04-.86-1.19-.22-1.34Z"/>
    <path d="M14.38,18.19c-.59.64-1.61-.16-1.05-.86s1.64.22,1.05.86Z"/>
    <path d="M40.57,49.61c-.6-.61.14-1.58.82-1.09.81.59-.22,1.69-.82,1.09Z"/>
    <path d="M28.53,8.75c.52-.11,1.05.37.82.9-.03.06-.32.35-.4.37-.89.27-1.3-1.08-.43-1.27Z"/>
    <path d="M44.5,45.75c.9-.13,1.08,1.05.48,1.25-1.04.34-1.34-1.13-.48-1.25Z"/>
    <path d="M7.32,36c-.65-.59.35-1.63.97-.93.56.64-.32,1.53-.97.93Z"/>
    <path d="M24.55,9.44c.89-.19,1.08,1.33.13,1.36-.82.03-.87-1.2-.13-1.36Z"/>
    <path d="M13.62,42.39c.99-.22,1.13,1.04.48,1.25-.91.29-1.3-1.07-.48-1.25Z"/>
    <path d="M15.08,11.96c.92-.11,1.03,1.2.25,1.33-.86.14-1.1-1.23-.25-1.33Z"/>
    <path d="M45.92,13.15c-.2-.16-.22-.59-.14-.82.19-.59,1.46-.44,1.25.49-.11.47-.79.59-1.11.34Z"/>
    <path d="M32.58,51.25c1.1-.24,1.19,1.64-.06,1.25-.54-.17-.51-1.12.06-1.25Z"/>
    <path d="M11.4,20.91c1-.24,1.27,1.09.35,1.27-.83.16-1.01-1.11-.35-1.27Z"/>
    <path d="M11.33,38.49c1.26-.29,1.11,1.57.1,1.25-.69-.22-.64-1.13-.1-1.25Z"/>
    <path d="M28.3,6.08c.99-.22,1.12,1.04.48,1.25-.93.3-1.25-1.08-.48-1.25Z"/>
    <path d="M48.09,17.25c.73.57-.1,1.62-.82,1.08-.66-.5.2-1.57.82-1.08Z"/>
    <path d="M33.57,6.24c.28.28.24.98-.19,1.11-1.02.3-1.28-1.26-.36-1.29.14,0,.45.08.55.18Z"/>
    <path d="M11.63,15.71c1.07-.24,1.15,1.19.21,1.28-.77.08-.88-1.13-.21-1.28Z"/>
    <path d="M16.68,45.75c1.1-.25,1.14,1.22.2,1.28-.83.06-.8-1.15-.2-1.28Z"/>
    <path d="M28.68,51.25c.9-.11.99,1.3.13,1.36s-.88-1.27-.13-1.36Z"/>
    <path d="M47.56,42.46c1.05-.23,1.14,1.22.2,1.28-.77.05-.9-1.13-.2-1.28Z"/>
    <path d="M54.97,29.93c.77.77-.71,1.64-1.08.74-.31-.73.59-1.24,1.08-.74Z"/>
    <path d="M42.13,50.72c1.07-.25,1.06,1.13.35,1.27-.88.18-1.05-1.11-.35-1.27Z"/>
    <path d="M44.5,13.87c.92-.18,1.18,1.09.35,1.27-.95.21-1.04-1.13-.35-1.27Z"/>
    <path d="M32.58,8.75c.71-.14,1.21.67.48,1.18-.96.67-1.29-1.01-.48-1.18Z"/>
    <path d="M49.62,15.71c1.23-.28,1.05,1.69-.13,1.17-.54-.24-.36-1.06.13-1.17Z"/>
    <path d="M36.86,50.49c.7-.12,1.06.8.55,1.17-.83.6-1.59-.99-.55-1.17Z"/>
    <path d="M37.55,7c.88-.18,1.19,1.39.07,1.28-.76-.07-.71-1.15-.07-1.28Z"/>
    <path d="M49.47,43.91c.84-.25,1.33.82.58,1.19-.86.42-1.29-.98-.58-1.19Z"/>
    <path d="M36.86,9.52c.8-.1,1.03,1.15.26,1.32-.85.19-1.12-1.21-.26-1.32Z"/>
    <path d="M40.68,11.35c.85-.19,1.28.88.61,1.15-1.02.41-1.35-.98-.61-1.15Z"/>
    <path d="M16.6,13.95c1.16-.34,1.3,1.35.14,1.21-.63-.08-.68-1.05-.14-1.21Z"/>
    <path d="M19.12,50.64c1.03-.31,1.18,1.62.02,1.25-.64-.21-.54-1.1-.02-1.25Z"/>
    <path d="M53.59,34.9c1.18-.27,1.03,1.42.16,1.27-.75-.13-.72-1.14-.16-1.27Z"/>
    <path d="M19.12,9.06c1.09-.33,1.18,1.72-.03,1.22-.55-.22-.4-1.09.03-1.22Z"/>
    <path d="M28.37,53.85c.65-.12,1.11,1.02.41,1.25-1.06.35-1.24-1.1-.41-1.25Z"/>
    <path d="M10.03,25.11c.8-.24,1.21,1.08.35,1.27-.95.21-.99-1.08-.35-1.27Z"/>
    <path d="M49.85,21.06c.77-.1,1.03,1.16.21,1.28-1.01.15-.96-1.18-.21-1.28Z"/>
    <path d="M51.57,29.86c.11-.1.41-.11.55-.1.76.07.79,1.3-.15,1.23-.59-.04-.76-.8-.4-1.13Z"/>
    <path d="M51.99,34.52c.64.59-.4,1.49-.97.86s.33-1.45.97-.86Z"/>
    <path d="M32.55,54.96c-.61-.67.59-1.55,1.05-.78.43.72-.56,1.32-1.05.78Z"/>
    <path d="M23.71,7c1-.22,1.1,1.37.08,1.27-.73-.07-.67-1.14-.08-1.27Z"/>
    <path d="M20.42,11.35c1.12-.24,1.17,1.46,0,1.19-.59-.13-.59-1.06,0-1.19Z"/>
    <path d="M24.48,50.41c.61-.06,1,.8.48,1.17-.94.69-1.45-1.08-.48-1.17Z"/>
    <path d="M52.14,39.56c.72-.07,1,.94.31,1.23-.97.4-1.2-1.14-.31-1.23Z"/>
    <path d="M49.85,38.48c.86-.15,1.09,1.17.2,1.29s-.88-1.16-.2-1.29Z"/>
    <path d="M41.79,9.3c.53-.53,1.54.24.94.9s-1.44-.39-.94-.9Z"/>
    <path d="M10.79,34.6c.55.67-.7,1.43-1.11.7-.44-.78.67-1.24,1.11-.7Z"/>
    <path d="M7.58,24.5c1.3-.31,1.05,1.5.02,1.17-.49-.16-.55-1.05-.02-1.17Z"/>
    <path d="M52.06,46.55c-.38.41-1.11.04-1.11-.47-.02-1.19,1.94-.43,1.11.47Z"/>
    <path d="M9.27,39.63c1.05-.21,1.14,1.55-.06,1.18-.52-.16-.53-1.05.06-1.18Z"/>
    <path d="M9.19,19.92c1.16-.35,1.16,1.54,0,1.19-.47-.14-.47-1.05,0-1.19Z"/>
    <path d="M9.57,29.7c.99-.12.96,1.48-.15,1.19-.65-.17-.46-1.12.15-1.19Z"/>
    <path d="M53.74,24.66c.83-.04.96,1.17.13,1.25s-.95-1.21-.13-1.25Z"/>
    <path d="M9.88,45.52c1.02-.15.94,1.55-.22,1.17-.48-.16-.4-1.08.22-1.17Z"/>
    <path d="M6.89,29.78c.88-.2,1.1.78.55,1.09-.89.5-1.37-.9-.55-1.09Z"/>
    <path d="M23.63,52.93c.85-.25,1.16.86.54,1.15-.93.43-1.2-.95-.54-1.15Z"/>
    <path d="M13.54,49.41c.85-.13,1,1.17.2,1.27s-.92-1.16-.2-1.27Z"/>
    <path d="M37.76,52.95c.75.03.84,1.21.07,1.26-.85.05-.96-1.29-.07-1.26Z"/>
    <path d="M52.68,21.18c-.63.51-1.49-.46-.86-.97s1.43.51.86.97Z"/>
    <path d="M5.29,35.51c.69-.13.99.83.43,1.12-.82.42-1.42-.93-.43-1.12Z"/>
    <path d="M55.96,24.2c1.2-.36,1.12,1.45,0,1.11-.46-.14-.46-.98,0-1.11Z"/>
    <path d="M47.86,49.49c1.05-.23.94,1.34.08,1.19-.7-.12-.65-1.07-.08-1.19Z"/>
    <path d="M7.05,40.78c.89-.21,1.13.82.54,1.07-.9.39-1.22-.91-.54-1.07Z"/>
    <path d="M9.87,14.18c1.01-.3,1.22,1.39,0,1.11-.51-.12-.43-.98,0-1.11Z"/>
    <path d="M5.29,23.89c.87-.18.98,1.16.13,1.21-.66.04-.79-1.07-.13-1.21Z"/>
    <path d="M56.12,35.43c.8-.16,1.02,1.05.25,1.18s-.94-1.04-.25-1.18Z"/>
    <path d="M51.3,14.18c1.07-.32,1.07,1.34.08,1.12-.61-.13-.53-.98-.08-1.12Z"/>
    <path d="M57.34,30.81c-.39.37-1.18.11-1.04-.54.23-1.02,1.75-.13,1.04.54Z"/>
    <path d="M4.34,29.93c.72-.58,1.54.85.46,1.03-.74.12-.81-.74-.46-1.03Z"/>
    <path d="M53.87,40.94c.25-.27.92-.2,1.03.19.26.85-1.02,1.11-1.13.36-.02-.15-.01-.44.09-.55Z"/>
    <path d="M43.35,52.86c.9-.2.86.96.35,1.12-.82.25-1.08-.96-.35-1.12Z"/>
    <path d="M17.79,8.11c-.46-.49.32-1.43.9-.78s-.47,1.23-.9.78Z"/>
    <path d="M18.27,52.8c.57,0,.8.67.31,1.04-.9.65-1.26-1.03-.31-1.04Z"/>
    <path d="M7.12,18.84c.78-.23,1.17.96.27,1.12-.8.15-.79-.97-.27-1.12Z"/>
    <path d="M54.21,18.92c1.01-.2.96,1.44-.06,1.1-.44-.15-.42-1,.06-1.1Z"/>
    <path d="M47.6,11.16c-.61-.67.5-1.37.9-.71.33.56-.42,1.23-.9.71Z"/>
    <path d="M28.68,57.33c-.34.28-1.03.07-.97-.47.12-1.14,1.75-.16.97.47Z"/>
    <path d="M43.43,7.16c.74-.01.7,1.13-.01,1.13s-.82-1.11.01-1.13Z"/>
    <path d="M28.37,3.86c1.01-.22.92,1.34-.08,1.04-.46-.14-.48-.92.08-1.04Z"/>
    <path d="M32.84,57.33c-.21-.21-.21-.66.06-.86.82-.59,1.42.95.34.96-.11,0-.33-.03-.4-.1Z"/>
    <path d="M13.54,10.21c.81-.18.98.99.27,1.12-.66.12-.9-.98-.27-1.12Z"/>
    <path d="M38.23,55.23c.84-.19,1.03.84.41,1.02-.75.22-1.03-.88-.41-1.02Z"/>
    <path d="M23.02,4.94c.68-.06.79,1.08.06,1.13-.68.04-.83-1.06-.06-1.13Z"/>
    <path d="M23.02,55.15c.72-.13.89,1.07.12,1.11-.72.04-.73-1-.12-1.11Z"/>
    <path d="M32.96,3.86c.72-.21,1.05.82.41,1.02-.84.27-.89-.88-.41-1.02Z"/>
    <path d="M9.11,48.31c-.56.45-1.3-.39-.66-.85.57-.42,1.16.45.66.85Z"/>
    <path d="M39,5.89c-.55.5-1.26-.36-.75-.79.57-.48,1.25.33.75.79Z"/>
    <path d="M11.86,29.85c.82-.18.91.79.35.96-.77.23-.99-.82-.35-.96Z"/>
    <path d="M50.08,30.73c-.55.59-1.37-.4-.71-.83.49-.32,1.09.42.71.83Z"/>
    <path d="M58.26,34.9c1.03-.31.91,1.23,0,.96-.47-.14-.43-.83,0-.96Z"/>
    <path d="M38,57.37c.74-.22.98.91.27,1.04-.6.11-.86-.87-.27-1.04Z"/>
    <path d="M39.75,56.84c.96-.11.59,1.54-.27.93-.41-.29-.1-.89.27-.93Z"/>
    <path d="M54.05,13.96c.78.65-.62,1.53-.8.53-.08-.45.44-.83.8-.53Z"/>
    <path d="M11.71,50.57c.63-.03.71,1.19-.16,1.05-.6-.1-.48-1.02.16-1.05Z"/>
    <path d="M21.65,56.83c.7-.2,1.02.97.19,1.04-.59.05-.76-.88-.19-1.04Z"/>
    <path d="M58.03,36.57c.69-.11.85.97.21,1.06-.72.1-.83-.96-.21-1.06Z"/>
    <path d="M44.92,54.47c.41-.44,1.26.19.78.74-.42.49-1.29-.19-.78-.74Z"/>
    <path d="M12.7,51.79c.77-.17.82.82.35.96-.79.23-.99-.82-.35-.96Z"/>
    <path d="M56.65,40.7c.76-.17.87.81.35.96-.79.23-.95-.83-.35-.96Z"/>
    <path d="M16.14,54.31c.95-.28.97,1.26,0,.96-.35-.11-.41-.84,0-.96Z"/>
    <path d="M48.78,51.79c.54-.03.73,1.05-.01,1.05-.68,0-.67-1.02.01-1.05Z"/>
    <path d="M18.21,55.23l.06.67c-1.14.86-1.42-1.14-.06-.67Z"/>
    <path d="M14.08,37.81c.51.41-.14,1.3-.71.75-.45-.44.2-1.15.71-.75Z"/>
    <path d="M58.26,24.8c.65-.1.89,1.07.06,1.05-.66-.02-.56-.97-.06-1.05Z"/>
    <path d="M34.03,58.13c.77-.14.87,1.28-.14.95-.48-.16-.29-.87.14-.95Z"/>
    <path d="M56.5,19.15c.7-.21.99.82.27.97s-.77-.81-.27-.97Z"/>
    <path d="M23.06,57.45c.41-.39,1.3.22.71.75s-1.12-.35-.71-.75Z"/>
    <path d="M29.37,58.36c.38.38-.19,1.26-.74.78s.32-1.21.74-.78Z"/>
    <path d="M3.53,22.97c.52-.04.83.74.24.94-.93.31-.9-.88-.24-.94Z"/>
    <path d="M49.55,26.11c.44.46-.44,1.29-.83.64s.46-1.03.83-.64Z"/>
    <path d="M28.91,48.96c.71-.15.88.93.13.98-.6.04-.83-.83-.13-.98Z"/>
    <path d="M13.36,22.29c.37-.44,1.13-.02.91.49-.34.78-1.33.01-.91-.49Z"/>
    <path d="M47.63,22.28c.67-.14.9.9.13.98-.69.07-.69-.86-.13-.98Z"/>
    <path d="M3.38,36.73c.77-.12.82,1.26-.15.96-.43-.13-.32-.89.15-.96Z"/>
    <path d="M3.07,24.81c.84-.19.81.93.13.98-.58.04-.72-.85-.13-.98Z"/>
    <path d="M15.69,18.69c.64-.12.78.81.27.97-.83.25-.92-.85-.27-.97Z"/>
    <path d="M44.2,56.03c-.45.43-1.22-.22-.71-.75.46-.47,1.2.29.71.75Z"/>
    <path d="M32.35,48.96c.75-.22,1,.81.27.97-.66.14-.74-.83-.27-.97Z"/>
    <path d="M7.58,46.13c.59-.12.93.82.27.96-.78.17-.83-.85-.27-.96Z"/>
    <path d="M58.53,31.65c-.46-.49.47-1.23.82-.64s-.43,1.06-.82.64Z"/>
    <path d="M4.57,40.86c.56-.46,1.19.49.63.82s-1.1-.44-.63-.82Z"/>
    <path d="M7.47,14.83c-.47-.39.04-1.18.63-.82.56.34-.1,1.26-.63.82Z"/>
    <path d="M49.09,33.98c.83-.18.8.92.12.96-.61.03-.72-.82-.12-.96Z"/>
    <path d="M47.29,37.88c.4-.4,1.25.18.83.72-.36.46-1.33-.22-.83-.72Z"/>
    <path d="M5.52,17.62c.62-.13.93.83.27.97-.73.15-.84-.85-.27-.97Z"/>
    <path d="M32.42,11.43c.7-.14.89.84.27.97s-.88-.84-.27-.97Z"/>
    <path d="M55.7,43.19c-.22-.31-.06-.83.4-.83.7,0,.63,1.04,0,1-.06,0-.38-.13-.41-.17Z"/>
    <path d="M3.15,34.9c.47,0,.62.71.16.91-.85.37-1.03-.91-.16-.91Z"/>
    <path d="M15.53,41.08c.7-.21.93.7.46.92-.67.33-1.01-.76-.46-.92Z"/>
    <path d="M2.46,29.01c1.12-.25.58,1.38-.13.86-.34-.25-.29-.77.13-.86Z"/>
    <path d="M2.62,30.77c.88-.21.74,1.2-.06.94-.47-.15-.41-.83.06-.94Z"/>
    <path d="M52.68,47.43c.4-.12.88.33.67.75-.03.06-.32.27-.38.27-.49.05-.81-.87-.29-1.03Z"/>
    <path d="M5.37,42.54c.17-.05.53-.05.64.09.48,1.01-1.17,1.07-.91.18.03-.09.17-.24.27-.27Z"/>
    <path d="M58.77,29.03c.62-.16.89.89.15.96-.67.07-.76-.81-.15-.96Z"/>
    <path d="M55.96,17.63c.6-.03.73.82.28.96-.81.25-.97-.92-.28-.96Z"/>
    <path d="M12.13,34.78c-.5-.47.28-1.15.74-.71.51.49-.33,1.09-.74.71Z"/>
    <path d="M45.8,18.7c.54-.03.67,1.02-.01,1.02s-.67-.99.01-1.02Z"/>
    <path d="M50.31,51.52c-.42.42-1.25-.29-.8-.73s1.24.3.8.73Z"/>
    <path d="M49.43,9.6c.58-.57,1.18.42.63.75-.62.37-1-.39-.63-.75Z"/>
    <path d="M52.53,12.57c.91-.26.73,1.32-.11.92-.41-.19-.23-.83.11-.92Z"/>
    <path d="M27.3,58.13c.63-.17.87.81.35.97-.71.21-.92-.82-.35-.97Z"/>
    <path d="M45.57,41.16c.63-.1.85.81.35.97-.7.22-.99-.87-.35-.97Z"/>
    <path d="M28.75,11.35c.41-.06.83.41.48.79-.67.73-1.26-.67-.48-.79Z"/>
    <path d="M27.45,2.33c.6-.18.92.85.27.97s-.88-.78-.27-.97Z"/>
    <path d="M16.45,5.85c.68-.12.76.89.21.98-.68.12-.79-.88-.21-.98Z"/>
    <path d="M12.94,26.68c-.38.27-1.13.02-.92-.49.28-.69,1.32-.17.92.49Z"/>
    <path d="M57.88,23.12c.7-.14.77.94.13.98-.59.04-.74-.85-.13-.98Z"/>
    <path d="M9.34,12.73c.29.31.05.88-.47.82-.82-.1-.16-1.49.47-.82Z"/>
    <path d="M39.61,13.64c.55-.13.93.76.33.95-.75.23-.89-.82-.33-.95Z"/>
    <path d="M11.79,9.52c.69-.14.87.96.04.96-.47,0-.61-.84-.04-.96Z"/>
    <path d="M32.42,58.28c.66-.19.9.79.33.95-.66.18-.83-.8-.33-.95Z"/>
    <path d="M18.05,5.16c.98-.29.82,1.13,0,.89-.39-.12-.39-.77,0-.89Z"/>
    <path d="M28.98,2.26c.61-.18.8.82.27.97-.68.19-.81-.81-.27-.97Z"/>
    <path d="M48.55,8.45c.63-.1.84,1.07-.02.98-.47-.05-.47-.91.02-.98Z"/>
    <path d="M18.17,15.94c.41-.44,1.1.14.75.64-.38.53-1.2-.16-.75-.64Z"/>
    <path d="M53.75,46.21c.8-.24.84,1.11.11.93-.52-.13-.49-.81-.11-.93Z"/>
    <path d="M5.29,19.96c-.42.4-1.14-.16-.7-.67.4-.46,1.18.22.7.67Z"/>
    <path d="M43.35,16.66c-.31.23-.88.08-.8-.38.17-1.01,1.43-.07.8.38Z"/>
    <path d="M33.72,2.49c.83-.26.97.9.24.86-.59-.04-.66-.73-.24-.86Z"/>
    <path d="M13.39,9.25c-.48.45-1.11-.41-.64-.75s1.1.31.64.75Z"/>
    <path d="M39.68,46.51c.64-.19.9.69.33.87-.69.22-.82-.72-.33-.87Z"/>
    <path d="M43.28,5.16c.67-.13.84.7.33.87-.66.22-.87-.76-.33-.87Z"/>
    <path d="M32.81,3.14c-.4.4-1.14-.24-.67-.71s1.05.33.67.71Z"/>
    <path d="M21.72,13.64c.74-.11.57,1.42-.21.86-.37-.26-.18-.81.21-.86Z"/>
    <path d="M25.08,48.35c.61-.19.9.54.48.78-.75.43-.99-.63-.48-.78Z"/>
    <path d="M21.49,46.51c.85-.25.81,1.11.02.87-.44-.13-.4-.76-.02-.87Z"/>
    <path d="M36.25,48.35c.69-.14.67.81.13.9-.66.11-.67-.79-.13-.9Z"/>
    <path d="M18.17,44.22c.5-.5,1.32.52.44.79-.5.16-.7-.53-.44-.79Z"/>
    <path d="M23.25,3.17c.6-.18.89.69.33.87-.68.23-.78-.74-.33-.87Z"/>
    <path d="M25.24,12.04c.58-.11.62.85.05.99-.57-.06-.61-.88-.05-.99Z"/>
    <path d="M42.78,45.03l-.06-.67c.92-.68,1.2,1.2.06.67Z"/>
    <path d="M38.23,3.17c.52-.1.69.81.13.91-.67.12-.73-.79-.13-.91Z"/>
    <path d="M44.8,6c.73-.22.9.71.33.87s-.73-.75-.33-.87Z"/>
    <path d="M36.55,12.92c-.46.44-1.14-.5-.51-.78.53-.24.88.44.51.78Z"/>
    <path d="M21.95,3.56c.79-.16.7,1.12-.06.87-.35-.12-.35-.79.06-.87Z"/>
    <path d="M39.92,3.64c.23.13.24.7-.11.81-.71.21-.79-.74-.37-.83.09-.02.41-.02.48.02Z"/>
    <path d="M34.91,14.95c.19-.19.75-.15.75.25,0,.86-1.31.31-.75-.25Z"/>
    <path d="M25.77,45.67c.5-.15.92.32.55.63-.57.48-1.02-.49-.55-.63Z"/>
    <path d="M35.48,45.67c.73-.15.37,1.21-.25.76-.35-.26-.1-.69.25-.76Z"/>
    <path d="M14.38,30c.5-.14.8.66.27.82-.58.17-.71-.69-.27-.82Z"/>
    <path d="M46.87,34.17c-.57.5-1.06-.78-.25-.75.41.02.44.58.25.75Z"/>
    <path d="M16.06,36.58c.61-.12.73,1.05-.07.81-.37-.11-.18-.76.07-.81Z"/>
    <path d="M25.74,15.03c.26-.25.94-.08.71.44-.27.6-1.09-.06-.71-.44Z"/>
    <path d="M32.04,46.36c.63-.19.83.92-.02.75-.38-.07-.29-.66.02-.75Z"/>
    <path d="M15.38,33.52c.33.29-.17,1.04-.63.59-.36-.36.29-.89.63-.59Z"/>
    <path d="M47.33,30.08c.21.2.2.63-.17.67-.91.11-.4-1.21.17-.67Z"/>
    <path d="M43.56,20.46c.38-.02.59.44.27.69-.65.51-.86-.67-.27-.69Z"/>
    <path d="M41.14,42.15c.5-.15.8.61.2.74s-.61-.62-.2-.74Z"/>
    <path d="M15.46,27.22c-.17.25-.92.03-.71-.44.26-.57,1.04-.03.71.44Z"/>
    <path d="M46.22,27.29c-.37-.37.27-.98.6-.56s-.29.87-.6.56Z"/>
    <path d="M17.82,39.63c.54-.16.7.63.19.74-.62.13-.6-.62-.19-.74Z"/>
    <path d="M41.13,18.01c.82-.09.28,1.23-.24.67-.23-.24-.05-.64.24-.67Z"/>
    <path d="M22.87,44.22c.56-.16.77.63.19.74-.46.09-.66-.6-.19-.74Z"/>
    <path d="M20.66,18.16c.24.24.11.7-.33.68-.75-.04-.14-1.14.33-.68Z"/>
    <path d="M45.11,36.73c.68-.2.72.64.2.74s-.53-.64-.2-.74Z"/>
    <path d="M45.11,23.5c.58-.17.59.63.28.74-.6.21-.75-.6-.28-.74Z"/>
    <path d="M38.39,16.09c.48-.07.54.77.05.81-.46.04-.6-.73-.05-.81Z"/>
    <path d="M32.5,14.99c-.47.47-.99-.48-.39-.66.46-.14.63.41.39.66Z"/>
    <path d="M29.06,46.36c.59-.18.77.87.06.75-.38-.06-.37-.66-.06-.75Z"/>
    <path d="M15.88,24.08c-.21-.21-.08-.72.31-.66.76.13.19,1.15-.31.66Z"/>
    <path d="M20.01,42.81c-.19-.19-.11-.72.29-.64.79.15.17,1.1-.29.64Z"/>
    <path d="M18.13,20.45l.08.58-.52.05c-.46-.35-.05-.94.44-.63Z"/>
    <path d="M28.98,14.33c.67-.2.64.95,0,.74-.24-.08-.31-.65,0-.74Z"/>
    <path d="M43.43,39.71c.51-.1.52.65.19.74-.52.14-.71-.64-.19-.74Z"/>
    <path d="M38.78,44.37c.27.17.08,1-.49.6-.43-.3.16-.81.49-.6Z"/>
    <path d="M22.95,16.09c.44-.12.73.66.2.74-.5.07-.53-.65-.2-.74Z"/>
    <path class="uuid-c53c5dfe-f07d-4bd4-9546-5c8a8eaf55f1"
          d="M35.83,34.98c-.38.42.07,1.31-.64,1.92-.42.36-1.09.44-1.62.33-.38-.08-.72-.52-1.16-.52-.68,0-1.25,1.07-2.05.67-.33-.16-.38-.54-.86-.6-1.13-.14-1.58.88-2.63.34-.33-.17-.76-.63-.83-1-.05-.27.02-.55-.03-.81-.19-.88-2.09-.2-1.96-1.76.07-.84.99-1.13.54-2.09-.13-.27-.43-.42-.41-.82.02-.28.36-.53.43-.8.28-1.06-.75-1.28-.56-2.24.22-1.1,1.84-.65,1.96-1.47.11-.69-.15-1.17.58-1.72.93-.7,1.8.43,2.83.31.73-.09.96-.97,1.86-.57.37.17.57.58,1.05.64.99.11,1.37-.85,2.52-.38.4.16.68.57.77.99.06.31-.02.59.12.87.25.49,1.54.37,1.79,1.27.27.96-.45,1.17-.43,1.95.01.4.3.63.42.96.22.61-.12.6-.33,1.04-.56,1.14.61,1.35.43,2.26-.07.38-.68.92-1.05,1.02-.25.07-.53-.02-.75.21ZM27.12,25.2c-.77.77.66,1.66,1.08.74.27-.6-.6-1.21-1.08-.74ZM33.88,25.11c-.69.15-.59,1.45.35,1.27s.7-1.5-.35-1.27ZM25.69,31.11c-.08.11-.3.13-.34.39-.15.81,1.33.77,1.43,1.14.09.35-.6,1.12-.06,1.59.38.33,1.18-.15,1.71.13s.24,1.48,1.12,1.71c.92.24.89-.68,1.33-.65.41.02.42.47.63.6.51.33,1.13-.18,1.32-.65.1-.24.07-.46.15-.69.31-.81,1.75-.02,2.1-.57s-.26-1.13-.07-1.52c.12-.26,1.12-.32,1.25-.74.16-.55-.31-.68-.57-1.05-.03-.58.68-.51.58-1.07-.09-.53-1.05-.52-1.19-.81-.18-.37.37-.8.12-1.42-.3-.74-1.48,0-2.02-.42-.42-.33-.28-1.43-1.16-1.68-.75-.21-.58.71-1.23.7-.42,0-.5-.79-1.14-.77-.86.04-.66,1.26-1.09,1.67-.46.43-1.01.07-1.59.17-.86.14-.15,1.27-.39,1.75-.14.3-1.57.38-1.18,1.1.28.5.83.36.27,1.1ZM24.97,27.64c-.22.26-.07.85.39.82,1.03-.07.09-1.38-.39-.82ZM36.17,27.56c-.39.11-.39.77,0,.89.82.24.82-1.13,0-.89ZM24.9,33.06c-.51.51.36,1.26.75.71.36-.51-.39-1.08-.75-.71ZM36.63,33.87c.46-.46-.39-1.23-.75-.64s.43.96.75.64ZM28.06,35.36c-.75-.68-1.49.22-.97.86s1.65-.25.97-.86ZM33.87,35.2c-.42.13-.6,1.07.08,1.19,1.18.21,1.02-1.51-.08-1.19Z"/>
    <path class="uuid-c53c5dfe-f07d-4bd4-9546-5c8a8eaf55f1"
          d="M30.02,40.66c-.33-.32-.4-.91-.17-1.3.72-1.23,2.49-.28,1.89.97-.3.64-1.23.8-1.72.33ZM30.74,39.48c-.53.08-.41.91.13.83.49-.07.4-.91-.13-.83Z"/>
    <path class="uuid-c53c5dfe-f07d-4bd4-9546-5c8a8eaf55f1"
          d="M30.1,22.47c-.49-.44-.49-1.28.1-1.64.87-.54,1.95.18,1.66,1.2-.21.72-1.22.93-1.76.44ZM30.67,21.29c-.48.14-.28.89.19.81.52-.08.5-1.01-.19-.81Z"/>
    <path class="uuid-c53c5dfe-f07d-4bd4-9546-5c8a8eaf55f1"
          d="M37.55,35.51c1.11-.15,1.71,1.25.73,1.88-1.43.92-2.46-1.65-.73-1.88ZM37.69,36.12c-.79.02-.37,1.19.25.7.32-.25.08-.71-.25-.7Z"/>
    <path class="uuid-c53c5dfe-f07d-4bd4-9546-5c8a8eaf55f1"
          d="M37.47,23.97c1.47-.23,1.78,1.9.28,2.04-1.26.12-1.59-1.84-.28-2.04ZM37.62,24.57c-.24.04-.44.3-.35.55.09.3.73.3.81,0,.11-.28-.18-.59-.47-.55Z"/>
    <path class="uuid-c53c5dfe-f07d-4bd4-9546-5c8a8eaf55f1"
          d="M23.79,23.89c1.42-.23,1.62,1.84.28,2.04s-1.66-1.82-.28-2.04ZM23.79,24.5c-.31.09-.42.74.08.82.73.11.63-1.03-.08-.82Z"/>
    <path class="uuid-c53c5dfe-f07d-4bd4-9546-5c8a8eaf55f1"
          d="M23.63,35.59c1.51-.31,1.83,1.69.58,1.95-1.46.3-1.87-1.68-.58-1.95ZM24.25,36.85c.3-.3-.07-.98-.56-.67-.58.36.14,1.09.56.67Z"/>
    <path class="uuid-c53c5dfe-f07d-4bd4-9546-5c8a8eaf55f1"
          d="M42.97,29.7c1.33-.31,1.71,1.67.37,1.67-1.19,0-1.22-1.47-.37-1.67Z"/>
    <path class="uuid-c53c5dfe-f07d-4bd4-9546-5c8a8eaf55f1"
          d="M18.05,29.78c1.52-.34,1.72,1.75.21,1.67-.97-.05-.9-1.51-.21-1.67Z"/>
    <path class="uuid-c53c5dfe-f07d-4bd4-9546-5c8a8eaf55f1"
          d="M30.51,42.16c1.44-.37,1.69,1.98.08,1.64-.9-.19-.83-1.45-.08-1.64Z"/>
    <path class="uuid-c53c5dfe-f07d-4bd4-9546-5c8a8eaf55f1"
          d="M30.51,17.62c1.03-.27,1.62,1.02.75,1.59-1.15.74-1.8-1.31-.75-1.59Z"/>
    <path class="uuid-c53c5dfe-f07d-4bd4-9546-5c8a8eaf55f1"
          d="M21.73,21.82c1.12-.16,1.27,1.59.2,1.66-1.13.08-1.15-1.53-.2-1.66Z"/>
    <path class="uuid-c53c5dfe-f07d-4bd4-9546-5c8a8eaf55f1"
          d="M21.65,38.03c1.24-.25,1.43,1.63.21,1.59-1-.03-1.11-1.41-.21-1.59Z"/>
    <path class="uuid-c53c5dfe-f07d-4bd4-9546-5c8a8eaf55f1"
          d="M39.53,37.95c1.26-.28,1.39,1.63.29,1.63-1.02,0-1.06-1.45-.29-1.63Z"/>
    <path class="uuid-c53c5dfe-f07d-4bd4-9546-5c8a8eaf55f1"
          d="M39.74,21.85c1.04,0,1.2,1.58.06,1.62-.99.03-1.16-1.62-.06-1.62Z"/>
    <path class="uuid-c53c5dfe-f07d-4bd4-9546-5c8a8eaf55f1"
          d="M22.26,32.76c.63.63-.51,1.75-1.16,1.04-.69-.75.52-1.68,1.16-1.04Z"/>
    <path class="uuid-c53c5dfe-f07d-4bd4-9546-5c8a8eaf55f1"
          d="M26.77,38.64c1.23-.28,1.24,1.65.08,1.42-.79-.16-.83-1.25-.08-1.42Z"/>
    <path class="uuid-c53c5dfe-f07d-4bd4-9546-5c8a8eaf55f1"
          d="M34.57,38.64c.92-.16,1.28,1.16.48,1.4-1.05.33-1.39-1.25-.48-1.4Z"/>
    <path class="uuid-c53c5dfe-f07d-4bd4-9546-5c8a8eaf55f1"
          d="M27.53,21.68c.63.72-.43,1.67-1.08.97-.69-.75.46-1.67,1.08-.97Z"/>
    <path class="uuid-c53c5dfe-f07d-4bd4-9546-5c8a8eaf55f1"
          d="M34.72,21.44c.77-.11,1.2.95.43,1.35-1,.51-1.53-1.19-.43-1.35Z"/>
    <path class="uuid-c53c5dfe-f07d-4bd4-9546-5c8a8eaf55f1"
          d="M39.76,32.6c.92-.17,1.31,1.31.28,1.44-.89.11-1.14-1.27-.28-1.44Z"/>
    <path class="uuid-c53c5dfe-f07d-4bd4-9546-5c8a8eaf55f1"
          d="M21.57,27.48c1.29-.21,1.18,1.75-.11,1.3-.73-.25-.48-1.2.11-1.3Z"/>
    <path class="uuid-c53c5dfe-f07d-4bd4-9546-5c8a8eaf55f1"
          d="M40.53,28.67c-.06.06-.54.24-.63.24-.72-.01-1.11-1.38.01-1.42.64-.02.96.82.62,1.18Z"/>
    <path class="uuid-c53c5dfe-f07d-4bd4-9546-5c8a8eaf55f1"
          d="M19.51,26.49c.56.56-.23,1.65-.98,1.02s.35-1.64.98-1.02Z"/>
    <path class="uuid-c53c5dfe-f07d-4bd4-9546-5c8a8eaf55f1"
          d="M43.2,33.83c.54.58-.44,1.64-1.05,1.01-.57-.58.43-1.68,1.05-1.01Z"/>
    <path class="uuid-c53c5dfe-f07d-4bd4-9546-5c8a8eaf55f1"
          d="M42.44,26.41c.93-.21,1.26,1.01.48,1.25-1.06.33-1.22-1.08-.48-1.25Z"/>
    <path class="uuid-c53c5dfe-f07d-4bd4-9546-5c8a8eaf55f1"
          d="M18.82,33.59c.71-.09,1.13.96.5,1.27-1.09.52-1.39-1.15-.5-1.27Z"/>
    <path class="uuid-c53c5dfe-f07d-4bd4-9546-5c8a8eaf55f1"
          d="M25.54,19.07c1.16-.27,1.16,1.48.12,1.23-.64-.15-.79-1.08-.12-1.23Z"/>
    <path class="uuid-c53c5dfe-f07d-4bd4-9546-5c8a8eaf55f1"
          d="M25.62,41.24c1.24-.17.82,1.71-.16,1.2-.53-.28-.43-1.11.16-1.2Z"/>
    <path class="uuid-c53c5dfe-f07d-4bd4-9546-5c8a8eaf55f1"
          d="M35.64,41.24c.96-.24,1.18,1.15.27,1.27-.72.09-1.02-1.08-.27-1.27Z"/>
    <path class="uuid-c53c5dfe-f07d-4bd4-9546-5c8a8eaf55f1"
          d="M35.71,19.07c1.17-.27,1.08,1.51.11,1.23-.6-.17-.64-1.11-.11-1.23Z"/>
    <path class="uuid-c53c5dfe-f07d-4bd4-9546-5c8a8eaf55f1"
          d="M21.42,30.15c.82-.17,1,1.09.12,1.11-.57.02-.75-.98-.12-1.11Z"/>
    <path class="uuid-c53c5dfe-f07d-4bd4-9546-5c8a8eaf55f1"
          d="M19.81,24.27c.96-.2.73,1.58-.2,1.01-.43-.27-.24-.92.2-1.01Z"/>
    <path class="uuid-c53c5dfe-f07d-4bd4-9546-5c8a8eaf55f1"
          d="M23.4,40.24c1-.31,1.04,1.22.16,1.04-.55-.11-.57-.92-.16-1.04Z"/>
    <path class="uuid-c53c5dfe-f07d-4bd4-9546-5c8a8eaf55f1"
          d="M38.39,20.3s.16.4.16.48c0,.58-1.15.73-1.07-.16.04-.45.67-.56.91-.32Z"/>
    <path class="uuid-c53c5dfe-f07d-4bd4-9546-5c8a8eaf55f1"
          d="M39.99,30.15c.61-.11.94.89.27,1.04-.78.17-.98-.91-.27-1.04Z"/>
    <path class="uuid-c53c5dfe-f07d-4bd4-9546-5c8a8eaf55f1" d="M28.61,42.69l.06.75c-1.07.88-1.46-1.31-.06-.75Z"/>
    <path class="uuid-c53c5dfe-f07d-4bd4-9546-5c8a8eaf55f1"
          d="M37.93,40.24c.63-.12.9.9.27,1.04-.76.17-.98-.91-.27-1.04Z"/>
    <path class="uuid-c53c5dfe-f07d-4bd4-9546-5c8a8eaf55f1"
          d="M41.6,24.27c.56-.08.76.89.27,1.04-.82.25-1.12-.92-.27-1.04Z"/>
    <path class="uuid-c53c5dfe-f07d-4bd4-9546-5c8a8eaf55f1"
          d="M33.42,19.84c.62-.05.73,1.11-.09,1.05-.58-.04-.7-.98.09-1.05Z"/>
    <path class="uuid-c53c5dfe-f07d-4bd4-9546-5c8a8eaf55f1"
          d="M33.65,40.71c.55.55-.39,1.38-.83.71-.38-.58.47-1.07.83-.71Z"/>
    <path class="uuid-c53c5dfe-f07d-4bd4-9546-5c8a8eaf55f1"
          d="M23.64,20.22c.47-.08.83.56.44.91-.71.63-1.28-.76-.44-.91Z"/>
    <path class="uuid-c53c5dfe-f07d-4bd4-9546-5c8a8eaf55f1"
          d="M33.42,17.77c.8-.14.83,1.32-.08,1.04-.36-.11-.45-.95.08-1.04Z"/>
    <path class="uuid-c53c5dfe-f07d-4bd4-9546-5c8a8eaf55f1"
          d="M28.14,40.63c.97-.29.96,1.26.02.94-.41-.14-.45-.81-.02-.94Z"/>
    <path class="uuid-c53c5dfe-f07d-4bd4-9546-5c8a8eaf55f1"
          d="M27.96,19.99c.41-.43,1.23.09.89.62-.39.61-1.37-.11-.89-.62Z"/>
    <path class="uuid-c53c5dfe-f07d-4bd4-9546-5c8a8eaf55f1"
          d="M28.07,17.85c1.05-.24.68,1.37-.05.93-.42-.25-.44-.82.05-.93Z"/>
    <path class="uuid-c53c5dfe-f07d-4bd4-9546-5c8a8eaf55f1"
          d="M33.08,43.5c-.47-.5.4-1.34.83-.64.33.56-.43,1.05-.83.64Z"/>
    <path class="uuid-c53c5dfe-f07d-4bd4-9546-5c8a8eaf55f1"
          d="M41.36,36.27c.95-.29.95,1.03.14.98-.54-.04-.53-.86-.14-.98Z"/>
    <path class="uuid-c53c5dfe-f07d-4bd4-9546-5c8a8eaf55f1"
          d="M38.23,31.53c.65-.19,1.01.81.27.97-.67.14-.82-.81-.27-.97Z"/>
    <path class="uuid-c53c5dfe-f07d-4bd4-9546-5c8a8eaf55f1"
          d="M20.42,37.08s-.33.17-.4.17c-.6,0-.7-1.11.15-.98.42.06.47.58.25.82Z"/>
    <path class="uuid-c53c5dfe-f07d-4bd4-9546-5c8a8eaf55f1"
          d="M24.29,39.45c-.63-.59.66-1.41.82-.47.08.5-.54.74-.82.47Z"/>
    <path class="uuid-c53c5dfe-f07d-4bd4-9546-5c8a8eaf55f1"
          d="M36.75,22.86c-.4-.4.04-1.1.63-.75.55.33-.12,1.26-.63.75Z"/>
    <path class="uuid-c53c5dfe-f07d-4bd4-9546-5c8a8eaf55f1"
          d="M21.31,25.5c.38-.31.92.1.75.55-.31.82-1.34-.07-.75-.55Z"/>
    <path class="uuid-c53c5dfe-f07d-4bd4-9546-5c8a8eaf55f1"
          d="M28.99,37.8c.71-.13.74.94.13.98-.57.04-.71-.88-.13-.98Z"/>
    <path class="uuid-c53c5dfe-f07d-4bd4-9546-5c8a8eaf55f1"
          d="M36.93,38.64c1.01-.3.87,1.02.16.89-.46-.08-.5-.79-.16-.89Z"/>
    <path class="uuid-c53c5dfe-f07d-4bd4-9546-5c8a8eaf55f1"
          d="M39.92,25.42c.37-.03.71.42.44.75-.61.76-1.33-.68-.44-.75Z"/>
    <path class="uuid-c53c5dfe-f07d-4bd4-9546-5c8a8eaf55f1" d="M32.42,22.82c.65-.19.87.78.33.95s-.89-.79-.33-.95Z"/>
    <path class="uuid-c53c5dfe-f07d-4bd4-9546-5c8a8eaf55f1" d="M24.39,22.05c.85-.29.96,1,.15.9-.54-.07-.4-.82-.15-.9Z"/>
    <path class="uuid-c53c5dfe-f07d-4bd4-9546-5c8a8eaf55f1"
          d="M32.88,37.88c.38.39-.3,1.05-.72.65-.5-.47.29-1.1.72-.65Z"/>
    <path class="uuid-c53c5dfe-f07d-4bd4-9546-5c8a8eaf55f1"
          d="M28.99,22.82c.59-.1.82.73.27.89-.65.19-.92-.78-.27-.89Z"/>
    <path class="uuid-c53c5dfe-f07d-4bd4-9546-5c8a8eaf55f1"
          d="M39.76,35.28c.76-.23.97.69.33.87-.53.15-.75-.74-.33-.87Z"/>
    <path class="uuid-c53c5dfe-f07d-4bd4-9546-5c8a8eaf55f1"
          d="M22.03,35.36c.25.34-.07.9-.57.68-.78-.34.15-1.24.57-.68Z"/>
    <path class="uuid-c53c5dfe-f07d-4bd4-9546-5c8a8eaf55f1"
          d="M37.97,29.09c.53-.53,1.32.64.47.74-.49.06-.76-.45-.47-.74Z"/>
    <path class="uuid-c53c5dfe-f07d-4bd4-9546-5c8a8eaf55f1"
          d="M22.99,29.74c-.44-.49.51-1.12.78-.51.25.56-.49.84-.78.51Z"/>
    <path class="uuid-c53c5dfe-f07d-4bd4-9546-5c8a8eaf55f1" d="M23.18,31.61c.63-.18.8.87.13.9-.49.03-.61-.76-.13-.9Z"/>
    <path class="uuid-c53c5dfe-f07d-4bd4-9546-5c8a8eaf55f1"
          d="M19.96,31.68c.41-.12.75.21.51.59-.47.75-1.22-.38-.51-.59Z"/>
    <path class="uuid-c53c5dfe-f07d-4bd4-9546-5c8a8eaf55f1"
          d="M41.25,31.76c.38-.38,1.16.31.56.67-.5.31-.83-.41-.56-.67Z"/>
    <path class="uuid-c53c5dfe-f07d-4bd4-9546-5c8a8eaf55f1"
          d="M41.52,29.01c.27-.07.6.24.41.57-.45.76-1.06-.4-.41-.57Z"/>
    <path class="uuid-c53c5dfe-f07d-4bd4-9546-5c8a8eaf55f1"
          d="M19.96,29.01c.28-.07.58.26.42.58-.32.66-1.12-.4-.42-.58Z"/>
    <path d="M25.69,31.11c.55-.74,0-.6-.27-1.1-.4-.71,1.03-.8,1.18-1.1.23-.49-.47-1.61.39-1.75.58-.1,1.13.27,1.59-.17.43-.41.23-1.63,1.09-1.67.64-.03.72.76,1.14.77.64,0,.47-.91,1.23-.7.87.25.74,1.35,1.16,1.68.54.42,1.72-.31,2.02.42.25.62-.3,1.05-.12,1.42.14.28,1.1.28,1.19.81.1.56-.61.49-.58,1.07.25.37.73.5.57,1.05-.13.43-1.12.48-1.25.74-.19.39.44.95.07,1.52s-1.79-.24-2.1.57c-.09.22-.06.45-.15.69-.19.47-.81.98-1.32.65-.21-.14-.21-.58-.63-.6-.45-.02-.42.89-1.33.65s-.57-1.43-1.12-1.71-1.33.21-1.71-.13c-.53-.47.16-1.24.06-1.59-.1-.37-1.58-.33-1.43-1.14.05-.26.26-.28.34-.39ZM30.82,27.18c-.54.05-.85.75-.32,1.05,1.01.57,1.26-1.14.32-1.05ZM32.81,28.01c-.46.11-.6.79-.14.95,1.05.35.9-1.13.14-.95ZM29.14,28.17c-.38-.38-1.24.13-.83.71s1.28-.26.83-.71ZM31.73,31.64c1.24-1.24-.9-3.26-1.95-1.61-.92,1.45.96,2.6,1.95,1.61ZM27.45,30.08c-.62.19-.55,1.26.21,1.29.99.04.81-1.6-.21-1.29ZM33.46,30.24c-.71.71.61,1.66,1.05.86s-.57-1.34-1.05-.86ZM28.6,32.37c-.45.08-.5.84-.08.97.94.28.89-1.11.08-.97ZM32.65,32.45c-.29.1-.29.78.08.89.97.28.91-1.22-.08-.89ZM30.41,33.38c-.41.38-.07,1,.47.97,1.04-.04.33-1.71-.47-.97Z"/>
    <path d="M33.88,25.11c1.05-.24,1.29,1.08.35,1.27s-1.04-1.11-.35-1.27Z"/>
    <path d="M28.06,35.36c.67.61-.47,1.47-.97.86s.23-1.53.97-.86Z"/>
    <path d="M27.12,25.2c.48-.48,1.35.14,1.08.74-.42.92-1.85.03-1.08-.74Z"/>
    <path d="M33.87,35.2c1.1-.33,1.26,1.39.08,1.19-.68-.12-.5-1.06-.08-1.19Z"/>
    <path d="M24.9,33.06c.36-.37,1.12.2.75.71-.39.55-1.26-.2-.75-.71Z"/>
    <path d="M36.63,33.87c-.32.32-1.1-.06-.75-.64s1.21.18.75.64Z"/>
    <path d="M24.97,27.64c.48-.56,1.42.75.39.82-.46.03-.62-.56-.39-.82Z"/>
    <path d="M36.17,27.56c.82-.24.82,1.13,0,.89-.39-.11-.39-.77,0-.89Z"/>
    <path d="M30.74,39.48c.53-.08.62.76.13.83-.54.08-.66-.75-.13-.83Z"/>
    <path d="M30.67,21.29c.69-.2.72.73.19.81-.48.07-.67-.68-.19-.81Z"/>
    <path d="M37.69,36.12c.33-.01.57.46.25.7-.63.48-1.04-.68-.25-.7Z"/>
    <path d="M37.62,24.57c.28-.04.58.26.47.55-.09.3-.73.3-.81,0-.09-.25.1-.51.35-.55Z"/>
    <path d="M23.79,24.5c.71-.21.81.93.08.82-.5-.08-.38-.72-.08-.82Z"/>
    <path d="M24.25,36.85c-.42.42-1.14-.32-.56-.67.49-.3.86.37.56.67Z"/>
    <path class="uuid-c53c5dfe-f07d-4bd4-9546-5c8a8eaf55f1"
          d="M31.73,31.64c-.99.99-2.87-.15-1.95-1.61,1.05-1.66,3.19.36,1.95,1.61ZM30.59,30.31c-.3.09-.31.64,0,.81.77.41.86-1.07,0-.81Z"/>
    <path class="uuid-c53c5dfe-f07d-4bd4-9546-5c8a8eaf55f1"
          d="M33.46,30.24c.48-.48,1.49.07,1.05.86s-1.76-.15-1.05-.86Z"/>
    <path class="uuid-c53c5dfe-f07d-4bd4-9546-5c8a8eaf55f1"
          d="M27.45,30.08c1.02-.31,1.2,1.33.21,1.29-.76-.03-.84-1.1-.21-1.29Z"/>
    <path class="uuid-c53c5dfe-f07d-4bd4-9546-5c8a8eaf55f1"
          d="M30.82,27.18c.94-.09.7,1.61-.32,1.05-.53-.3-.22-.99.32-1.05Z"/>
    <path class="uuid-c53c5dfe-f07d-4bd4-9546-5c8a8eaf55f1"
          d="M30.41,33.38c.81-.74,1.51.93.47.97-.54.02-.88-.6-.47-.97Z"/>
    <path class="uuid-c53c5dfe-f07d-4bd4-9546-5c8a8eaf55f1"
          d="M32.81,28.01c.76-.18.91,1.3-.14.95-.46-.15-.32-.83.14-.95Z"/>
    <path class="uuid-c53c5dfe-f07d-4bd4-9546-5c8a8eaf55f1" d="M29.14,28.17c.45.45-.41,1.3-.83.71s.45-1.09.83-.71Z"/>
    <path class="uuid-c53c5dfe-f07d-4bd4-9546-5c8a8eaf55f1"
          d="M28.6,32.37c.81-.15.87,1.24-.08.97-.42-.12-.37-.88.08-.97Z"/>
    <path class="uuid-c53c5dfe-f07d-4bd4-9546-5c8a8eaf55f1"
          d="M32.65,32.45c.99-.34,1.05,1.17.08.89-.37-.11-.37-.79-.08-.89Z"/>
    <path d="M30.59,30.31c.87-.26.77,1.22,0,.81-.31-.17-.3-.72,0-.81Z"/>
</svg>
